<?xml version="1.0" encoding="UTF-8" standalone="no"?>
<!-- Created with Inkscape (http://www.inkscape.org/) -->

<svg
   xmlns:dc="http://purl.org/dc/elements/1.1/"
   xmlns:cc="http://creativecommons.org/ns#"
   xmlns:rdf="http://www.w3.org/1999/02/22-rdf-syntax-ns#"
   xmlns:svg="http://www.w3.org/2000/svg"
   xmlns="http://www.w3.org/2000/svg"
   xmlns:sodipodi="http://sodipodi.sourceforge.net/DTD/sodipodi-0.dtd"
   xmlns:inkscape="http://www.inkscape.org/namespaces/inkscape"
   width="1300.0854"
   height="272.12598"
   viewBox="0 0 343.98087 72"
   version="1.1"
   id="svg8"
   sodipodi:docname="header_logo.svg"
   inkscape:version="0.92.4 5da689c313, 2019-01-14"
   inkscape:export-filename="/home/brbl/public_html/BlogZone/assets/header_logo.png"
   inkscape:export-xdpi="25.400002"
   inkscape:export-ydpi="25.400002">
  <defs
     id="defs2" />
  <sodipodi:namedview
     id="base"
     pagecolor="#ffffff"
     bordercolor="#666666"
     borderopacity="1.0"
     inkscape:pageopacity="0"
     inkscape:pageshadow="2"
     inkscape:zoom="0.7"
     inkscape:cx="570.5968"
     inkscape:cy="257.8234"
     inkscape:document-units="mm"
     inkscape:current-layer="layer1"
     showgrid="false"
     inkscape:snap-object-midpoints="true"
     inkscape:snap-center="true"
     inkscape:snap-bbox="true"
     inkscape:snap-bbox-midpoints="true"
     inkscape:snap-bbox-edge-midpoints="true"
     inkscape:bbox-nodes="true"
     inkscape:bbox-paths="true"
     inkscape:snap-text-baseline="true"
     inkscape:object-paths="true"
     inkscape:snap-intersection-paths="true"
     inkscape:snap-midpoints="true"
     inkscape:snap-global="false"
     inkscape:window-width="1264"
     inkscape:window-height="736"
     inkscape:window-x="7"
     inkscape:window-y="31"
     inkscape:window-maximized="0"
     inkscape:pagecheckerboard="true"
     showguides="false"
     fit-margin-top="0"
     fit-margin-left="0"
     fit-margin-right="0"
     fit-margin-bottom="0"
     units="px" />
  <metadata
     id="metadata5">
    <rdf:RDF>
      <cc:Work
         rdf:about="">
        <dc:format>image/svg+xml</dc:format>
        <dc:type
           rdf:resource="http://purl.org/dc/dcmitype/StillImage" />
        <dc:title></dc:title>
      </cc:Work>
    </rdf:RDF>
  </metadata>
  <g
     inkscape:label="Layer 1"
     inkscape:groupmode="layer"
     id="layer1"
     transform="translate(9.6791544,-150.7469)">
    <g
       id="g1209"
       transform="translate(-0.53453906,0.80180858)"
       style="fill:#0044aa" />
    <flowRoot
       xml:space="preserve"
       id="flowRoot266"
       style="font-style:normal;font-weight:normal;font-size:40px;line-height:1.25;font-family:sans-serif;letter-spacing:0px;word-spacing:0px;fill:#000000;fill-opacity:1;stroke:none"><flowRegion
         id="flowRegion268"><rect
           id="rect270"
           width="914.28571"
           height="394.28571"
           x="877.14282"
           y="136.55794" /></flowRegion><flowPara
         id="flowPara272" /></flowRoot>    <text
       xml:space="preserve"
       style="font-style:normal;font-variant:normal;font-weight:bold;font-stretch:normal;font-size:64.35275269px;line-height:1.25;font-family:'monofur for Powerline';-inkscape-font-specification:'monofur for Powerline, Bold';font-variant-ligatures:normal;font-variant-caps:normal;font-variant-numeric:normal;font-feature-settings:normal;text-align:start;letter-spacing:0px;word-spacing:0px;writing-mode:lr-tb;text-anchor:start;fill:#000000;fill-opacity:1;stroke:none;stroke-width:0.75413382"
       x="88.488899"
       y="193.09715"
       id="text276"
       transform="scale(0.93582303,1.0685781)"><tspan
         sodipodi:role="line"
         id="tspan1085"
         x="88.488899"
         y="193.09715"
         style="stroke-width:0.75413382">BlogZone</tspan></text>
    <rect
       ry="21.24824"
       y="150.93529"
       x="-2.7715218"
       height="71.623337"
       width="71.623337"
       id="rect1135"
       style="opacity:1;fill:#164450;fill-opacity:1;stroke:none;stroke-width:0.37666714;stroke-miterlimit:4;stroke-dasharray:none;stroke-opacity:0.99145298" />
    <g
       aria-label="bz"
       transform="matrix(0.46137439,-0.47770559,0.51065813,0.44889325,-76.219725,183.07559)"
       style="font-style:normal;font-variant:normal;font-weight:normal;font-stretch:normal;font-size:133.33169556px;line-height:1.25;font-family:Clarissa;-inkscape-font-specification:'Clarissa, Normal';font-variant-ligatures:normal;font-variant-caps:normal;font-variant-numeric:normal;font-feature-settings:normal;text-align:start;letter-spacing:0px;word-spacing:0px;writing-mode:lr-tb;text-anchor:start;fill:#e9f6f9;fill-opacity:1;stroke:none"
       id="flowRoot83">
      <path
         d="m 117.12354,120.5039 q 0.26667,-0.13333 0.79999,0.4 0.66666,0.39999 0.13334,0.66666 -4.26662,1.33331 -8.53323,3.06663 -4.13328,1.73331 -7.9999,3.99995 -0.66666,4.39994 -1.599984,8.26656 -1.066653,4.53328 -2.799966,8.66656 -1.733312,3.99995 -4.133282,7.86657 -1.199985,1.73331 -2.533302,3.3333 -1.333317,1.73331 -3.066629,2.79996 -1.599981,1.06665 -3.599956,1.33332 -1.999976,0.26666 -4.266614,-0.66666 -1.466649,-0.66666 -3.066629,-1.99998 -1.466649,-1.19998 -1.466649,-2.93329 0,-1.06666 0.533327,-1.99998 0.533327,-0.93332 0.933322,-1.86664 0.266663,-0.93332 0.666658,-1.73331 0.533327,-0.79999 1.066654,-1.59999 2.133307,-3.46662 4.533277,-6.66658 2.399971,-3.19996 5.4666,-5.99993 4.133282,-3.99995 9.333219,-7.06658 1.199985,-5.19993 0.933321,-10.9332 0,-1.06665 0,-1.99997 0,-1.06665 -0.266663,-2.13331 -0.266663,-1.19998 -0.79999,-1.59998 -0.533327,-0.53332 -1.999976,0 -1.59998,0.53333 -3.066629,1.59998 -1.466648,1.06666 -2.799965,2.13331 -5.599931,5.19994 -9.199887,11.86652 -3.466624,6.53325 -6.133258,13.4665 -0.266664,0.66666 -1.066654,0.66666 -0.666658,0 -1.466648,-0.39999 -0.799991,-0.4 -1.333317,-1.06666 -0.666659,-0.66666 -0.666659,-1.19998 0.666659,-10.13321 3.733288,-19.73309 3.066629,-9.59989 6.666584,-19.066437 2.666634,-7.599907 5.999927,-14.799818 3.333292,-7.199912 8.266565,-13.599833 1.199985,-1.599981 2.533302,-3.066629 1.333317,-1.466649 2.799966,-2.933298 1.066657,-1.066653 2.399967,-1.999975 1.33332,-0.933322 2.9333,-0.933322 1.99998,0 2.9333,0.933322 1.06665,0.79999 1.33331,2.133307 0.4,1.333317 0.26667,2.933297 0,1.599981 -0.26667,2.933298 -0.93332,4.133282 -2.5333,7.999901 -1.59998,3.733288 -3.46662,7.466575 -1.73331,3.466624 -3.599957,6.933249 -1.866644,3.333292 -4.133283,6.666583 -3.466624,5.19994 -7.733238,10.13321 -4.133283,4.79994 -9.199887,8.3999 l -1.599981,5.19993 q 1.866644,-2.66663 3.733288,-4.93327 1.199985,-1.59998 2.799966,-3.46662 1.59998,-1.99998 3.466624,-3.59996 1.866643,-1.73331 3.99995,-2.79997 2.133308,-1.06665 4.399946,-1.06665 1.999976,0 3.199961,0.93332 1.333317,0.79999 1.999971,2.13331 0.79999,1.33332 1.06666,3.06663 0.26666,1.59998 0.39999,3.19996 0,1.99998 0,3.99995 0,1.99998 -0.26666,4.13328 3.59996,-1.86664 7.46657,-3.19996 3.86662,-1.33331 7.86657,-2.26664 z M 82.190641,108.63738 q -0.799991,1.99998 -1.466649,3.99995 -0.666659,1.86665 -1.333317,3.86662 8.533228,-7.19991 14.93315,-17.466449 1.866644,-3.066629 3.466624,-5.999926 1.733312,-3.066629 3.199961,-6.26659 1.73331,-3.733287 3.19996,-7.466575 1.59998,-3.733287 2.26664,-7.86657 0.39999,-2.133307 0.39999,-4.533278 0,-1.066653 -0.26666,-1.466648 -0.13333,-0.533327 -1.33332,0.133331 -1.46664,0.933322 -2.5333,2.266639 -1.06665,1.333317 -2.13331,2.666634 -2.133303,2.666634 -3.999946,5.733263 -1.866644,3.066629 -3.599956,6.133258 -3.333292,6.399921 -5.866595,12.933175 -2.533302,6.533256 -4.933272,13.333166 z m 14.399823,23.06639 q -1.199986,0.93332 -2.399971,1.86664 -1.199985,0.79999 -2.266639,1.86664 -4.799941,4.26662 -8.533228,9.59989 -0.933322,1.46664 -1.733312,2.93329 -0.79999,1.33332 -1.466649,2.9333 -0.266663,0.66666 -0.666658,1.73331 -0.266664,1.06666 -0.266664,1.99998 0,0.79999 0.399995,1.33331 0.399995,0.53333 1.599981,0.13334 1.866643,-0.53333 3.19996,-1.99998 1.333317,-1.46665 2.399971,-2.9333 1.999975,-2.79996 3.599956,-5.59993 1.866643,-3.33329 3.466624,-6.66658 1.59998,-3.46663 2.666634,-7.06658 z"
         id="path848"
         inkscape:connector-curvature="0" />
      <path
         d="m 143.52317,120.5039 q 0.26667,-0.39999 0.93333,0 0.66666,0.26667 0.39999,0.79999 -1.86664,5.19994 -5.73326,9.46655 -3.73329,4.26662 -7.9999,7.73324 -0.4,0.26667 -0.93332,0.79999 0.53332,4.53328 -0.93333,9.46655 -1.46665,4.79994 -3.46662,8.7999 -1.86664,3.33329 -4.53328,6.39992 -2.5333,3.06663 -5.99992,4.93327 -1.99998,1.06665 -3.86662,1.46665 -0.66666,0.26666 -1.19999,0.39999 -0.53333,0.13333 -1.06665,0.26667 -2.5333,0.53332 -4.93328,-0.53333 -2.5333,-0.93332 -3.73328,-3.19996 -1.466652,-2.9333 -0.13333,-5.99993 1.33331,-3.06663 3.19996,-5.33327 4.53327,-5.33326 10.39987,-8.53322 5.73326,-3.3333 11.46652,-7.06658 0.13334,0 0.26667,-0.13334 0,-1.46664 -0.13333,-3.19996 0,-1.73331 -0.4,-3.06662 -0.26666,-1.33332 -0.93332,-1.86665 -0.66666,-0.66666 -1.86664,0 -0.4,0.26666 -1.06666,0.13333 -0.66666,-0.26666 -1.33332,-0.66666 -0.53332,-0.39999 -0.79999,-0.79999 -0.26666,-0.53332 0.26667,-0.93332 3.46662,-3.19996 6.39992,-7.5999 2.9333,-4.53328 3.59995,-9.33322 0.13334,-0.66666 0.13334,-1.19999 0.13333,-0.53332 0,-1.06665 -0.4,-1.73331 -1.73332,-1.99998 -1.33331,-0.39999 -2.5333,0.53333 -1.06665,0.66666 -1.73331,1.59998 -0.53333,0.79999 -1.19998,1.86664 -1.33332,1.99998 -2.26664,4.93328 -0.93333,2.79996 0.26666,5.0666 0.53333,0.79999 0.13333,1.19999 -0.39999,0.26666 -1.19998,0.26666 -0.79999,-0.13333 -1.59998,-0.53333 -0.79999,-0.39999 -1.06666,-0.93332 -1.59998,-3.19996 -0.53332,-6.66658 1.06665,-3.46663 3.33329,-6.13326 1.86664,-1.99998 4.53328,-2.9333 2.79996,-1.06665 5.33326,0.79999 0.13333,0.13333 0.26667,0.26666 0.13333,0 0.26666,0.13334 1.86664,1.19998 3.06663,3.46662 1.33332,2.13331 1.33332,4.39995 0,1.99997 -0.66666,4.26661 -0.66666,2.13331 -1.86665,4.13328 -1.19998,1.99998 -2.93329,3.59996 -1.59998,1.59998 -3.59996,2.39997 3.33329,2.66663 4.66661,6.93325 4.26661,-3.46663 7.9999,-7.59991 3.86662,-4.13328 5.73326,-9.19989 z m -37.99953,36.53289 q -0.79999,0.93332 -1.59998,2.26664 -0.79999,1.46665 -1.19998,2.93329 -0.53333,1.46665 -0.4,2.9333 0.13333,1.46665 1.19999,2.66664 0.39999,0.39999 0.66665,0.53332 2.26664,0.66666 4.66661,-0.26666 2.39997,-0.93332 4.26662,-2.39997 0.53332,-0.4 0.93332,-0.79999 0.26666,-0.26666 0.53333,-0.53333 2.1333,-1.99997 3.73328,-4.39994 1.59998,-2.39997 3.06663,-5.06661 l 1.99998,-3.99995 q 0.39999,-1.06665 0.66666,-2.13331 0.39999,-1.19998 0.79999,-2.26664 v -0.13333 q 0,-0.26666 0,-0.26666 0.13333,-0.13333 0.13333,-0.4 0.26666,-0.66665 0.26666,-1.33331 0.13333,-0.79999 0.26667,-1.46665 v -0.53333 q -2.79997,1.86665 -5.73327,3.59996 -2.93329,1.59998 -5.86659,3.46662 -2.26664,1.59998 -4.39995,3.46663 -2.26664,1.86664 -3.99995,4.13328 z"
         id="path850"
         inkscape:connector-curvature="0" />
    </g>
  </g>
</svg>
