<?xml version="1.0" encoding="UTF-8" standalone="no"?>
<!-- Generator: Adobe Illustrator 19.0.0, SVG Export Plug-In . SVG Version: 6.00 Build 0)  -->

<svg
   xmlns:dc="http://purl.org/dc/elements/1.1/"
   xmlns:cc="http://creativecommons.org/ns#"
   xmlns:rdf="http://www.w3.org/1999/02/22-rdf-syntax-ns#"
   xmlns:svg="http://www.w3.org/2000/svg"
   xmlns="http://www.w3.org/2000/svg"
   xmlns:sodipodi="http://sodipodi.sourceforge.net/DTD/sodipodi-0.dtd"
   xmlns:inkscape="http://www.inkscape.org/namespaces/inkscape"
   version="1.1"
   id="Capa_1"
   x="0px"
   y="0px"
   viewBox="0 0 320.00001 319.98762"
   xml:space="preserve"
   sodipodi:docname="setup_intro.svg"
   inkscape:version="0.92.4 5da689c313, 2019-01-14"
   width="320"
   height="319.98761"><metadata
   id="metadata732"><rdf:RDF><cc:Work
       rdf:about=""><dc:format>image/svg+xml</dc:format><dc:type
         rdf:resource="http://purl.org/dc/dcmitype/StillImage" /><dc:title></dc:title></cc:Work></rdf:RDF></metadata><defs
   id="defs730" /><sodipodi:namedview
   pagecolor="#ffffff"
   bordercolor="#666666"
   borderopacity="1"
   objecttolerance="10"
   gridtolerance="10"
   guidetolerance="10"
   inkscape:pageopacity="0"
   inkscape:pageshadow="2"
   inkscape:window-width="1264"
   inkscape:window-height="713"
   id="namedview728"
   showgrid="false"
   inkscape:zoom="0.46094651"
   inkscape:cx="-233.75469"
   inkscape:cy="159.99318"
   inkscape:window-x="7"
   inkscape:window-y="55"
   inkscape:window-maximized="0"
   inkscape:current-layer="Capa_1"
   fit-margin-top="0"
   fit-margin-left="0"
   fit-margin-right="0"
   fit-margin-bottom="0" />
<path
   style="fill:#ffffff;stroke-width:0.62501299"
   d="M 23.653627,170.46692 C -7.186389,120.36713 8.420187,54.74514 58.519347,23.89763 108.61852,-6.9498861 174.2405,8.6560599 205.08864,58.75585 c 10.6146,17.23474 16.09346,37.14077 15.80408,57.38119 -1.90254,58.9031 -50.4948,105.50219 -109.42102,104.93155 H 13.153407 l 10.34834,-17.57723 c 6.16325,-10.13584 6.217,-22.8361 0.15188,-33.02444 z"
   id="path685"
   inkscape:connector-curvature="0" />
<path
   style="fill:#d1eeff;stroke-width:0.62501299"
   d="M 296.36929,261.77756 C 327.1943,211.6634 311.5571,146.04891 261.44294,115.2239 248.7583,107.42436 234.58238,102.36426 219.8202,100.38609 c 0.74564,5.22011 1.09565,10.47772 1.06502,15.75095 -1.90254,58.9031 -50.4948,105.50219 -109.42102,104.93155 h -11.1096 c 8.68955,52.91485 54.58113,91.64566 108.20349,91.31065 H 306.8695 L 296.52116,294.802 c -6.15575,-10.13584 -6.21637,-22.83547 -0.15187,-33.02444 z"
   id="path687"
   inkscape:connector-curvature="0" />
<g
   id="g695"
   transform="matrix(0.62501297,0,0,0.62501297,1.0010297e-5,-0.00599115)">
	<path
   style="fill:#1aa8ff"
   d="m 484.894,465.473 c -7.463,-12.357 -7.463,-27.819 0,-40.176 C 537.731,339.393 510.935,226.913 425.032,174.076 406.04,162.388 385.063,154.28 363.149,150.153 356.088,111.876 336.974,76.85 308.607,50.2 271.122,14.334 220.049,-3.709 168.356,0.65 67.807,8.527 -7.31,96.415 0.567,196.964 c 2.277,29.134 11.517,57.293 26.942,82.117 7.463,12.357 7.463,27.819 0,40.176 l -16.923,28.245 c -3.433,5.783 -1.522,13.258 4.261,16.679 1.875,1.108 4.018,1.704 6.209,1.704 h 129.537 c 19.114,85.477 95.034,146.204 182.618,146.094 h 157.782 c 6.72,0 12.175,-5.454 12.175,-12.175 0,-2.179 -0.584,-4.334 -1.704,-6.209 z M 42.35,341.537 l 5.844,-9.861 c 12.15,-20.1 12.15,-45.277 0,-65.377 C 2.381,191.851 25.598,94.369 100.033,48.557 174.468,2.745 271.962,25.949 317.775,100.396 c 15.754,25.591 23.886,55.138 23.46,85.185 -2.91,87.608 -75.239,156.869 -162.895,155.956 H 42.35 Z M 333.687,487.631 C 259.288,488.057 194.094,437.91 175.418,365.886 h 2.922 c 100.927,0.84 184.079,-79.049 187.244,-179.94 0,-3.531 0,-7.061 0,-10.592 85.1,19.978 137.889,105.151 117.91,190.251 -3.884,16.533 -10.397,32.323 -19.297,46.787 -12.15,20.1 -12.15,45.277 0,65.377 l 5.844,9.861 H 333.687 Z"
   id="path689"
   inkscape:connector-curvature="0" />
	<path
   style="fill:#1aa8ff"
   d="m 196.48,153.927 v 0 c 0,12.175 -11.444,19.966 -40.785,21.184 l -1.217,1.217 5.357,37.741 h 24.349 l 2.557,-14.244 c 24.836,-4.383 44.924,-16.557 44.924,-46.385 v 0 c 0,-30.923 -22.766,-48.698 -56.368,-48.698 -21.805,-0.524 -42.696,8.717 -56.977,25.201 l 21.427,23.497 c 8.9,-9.995 21.561,-15.827 34.941,-16.07 13.878,0 21.792,6.087 21.792,16.557 z"
   id="path691"
   inkscape:connector-curvature="0" />
	<rect
   x="152.164"
   y="232.526"
   style="fill:#1aa8ff"
   width="37.741001"
   height="37.254002"
   id="rect693" />
</g>
<g
   id="g697"
   transform="matrix(0.62501297,0,0,0.62501297,1.0010297e-5,-0.00599115)">
</g>
<g
   id="g699"
   transform="matrix(0.62501297,0,0,0.62501297,1.0010297e-5,-0.00599115)">
</g>
<g
   id="g701"
   transform="matrix(0.62501297,0,0,0.62501297,1.0010297e-5,-0.00599115)">
</g>
<g
   id="g703"
   transform="matrix(0.62501297,0,0,0.62501297,1.0010297e-5,-0.00599115)">
</g>
<g
   id="g705"
   transform="matrix(0.62501297,0,0,0.62501297,1.0010297e-5,-0.00599115)">
</g>
<g
   id="g707"
   transform="matrix(0.62501297,0,0,0.62501297,1.0010297e-5,-0.00599115)">
</g>
<g
   id="g709"
   transform="matrix(0.62501297,0,0,0.62501297,1.0010297e-5,-0.00599115)">
</g>
<g
   id="g711"
   transform="matrix(0.62501297,0,0,0.62501297,1.0010297e-5,-0.00599115)">
</g>
<g
   id="g713"
   transform="matrix(0.62501297,0,0,0.62501297,1.0010297e-5,-0.00599115)">
</g>
<g
   id="g715"
   transform="matrix(0.62501297,0,0,0.62501297,1.0010297e-5,-0.00599115)">
</g>
<g
   id="g717"
   transform="matrix(0.62501297,0,0,0.62501297,1.0010297e-5,-0.00599115)">
</g>
<g
   id="g719"
   transform="matrix(0.62501297,0,0,0.62501297,1.0010297e-5,-0.00599115)">
</g>
<g
   id="g721"
   transform="matrix(0.62501297,0,0,0.62501297,1.0010297e-5,-0.00599115)">
</g>
<g
   id="g723"
   transform="matrix(0.62501297,0,0,0.62501297,1.0010297e-5,-0.00599115)">
</g>
<g
   id="g725"
   transform="matrix(0.62501297,0,0,0.62501297,1.0010297e-5,-0.00599115)">
</g>
</svg>