<?xml version="1.0" encoding="UTF-8" standalone="no"?>
<!-- Generator: Adobe Illustrator 19.0.0, SVG Export Plug-In . SVG Version: 6.00 Build 0)  -->

<svg
   xmlns:dc="http://purl.org/dc/elements/1.1/"
   xmlns:cc="http://creativecommons.org/ns#"
   xmlns:rdf="http://www.w3.org/1999/02/22-rdf-syntax-ns#"
   xmlns:svg="http://www.w3.org/2000/svg"
   xmlns="http://www.w3.org/2000/svg"
   xmlns:sodipodi="http://sodipodi.sourceforge.net/DTD/sodipodi-0.dtd"
   xmlns:inkscape="http://www.inkscape.org/namespaces/inkscape"
   version="1.1"
   id="Capa_1"
   x="0px"
   y="0px"
   viewBox="0 0 320 320"
   xml:space="preserve"
   sodipodi:docname="setup_external_accounts.svg"
   width="320"
   height="320"
   inkscape:version="0.92.4 5da689c313, 2019-01-14"><metadata
   id="metadata1036"><rdf:RDF><cc:Work
       rdf:about=""><dc:format>image/svg+xml</dc:format><dc:type
         rdf:resource="http://purl.org/dc/dcmitype/StillImage" /><dc:title></dc:title></cc:Work></rdf:RDF></metadata><defs
   id="defs1034" /><sodipodi:namedview
   pagecolor="#ffffff"
   bordercolor="#666666"
   borderopacity="1"
   objecttolerance="10"
   gridtolerance="10"
   guidetolerance="10"
   inkscape:pageopacity="0"
   inkscape:pageshadow="2"
   inkscape:window-width="1264"
   inkscape:window-height="713"
   id="namedview1032"
   showgrid="false"
   fit-margin-top="0"
   fit-margin-left="0"
   fit-margin-right="0"
   fit-margin-bottom="0"
   inkscape:zoom="0.4609375"
   inkscape:cx="-502.77966"
   inkscape:cy="160"
   inkscape:window-x="7"
   inkscape:window-y="55"
   inkscape:window-maximized="0"
   inkscape:current-layer="Capa_1" />
<path
   style="fill:#366db6;stroke-width:0.625"
   d="M 112,128 C 112,98.54375 88.1225,74.66687 58.66687,74.66687 29.21125,74.66687 5.33312,98.54375 5.33312,128 c 0,19.72812 10.74126,36.91187 26.66688,46.13875 V 160.08 c 0,-5.93625 5.01312,-10.74687 11.19437,-10.74687 h 30.94375 c 6.18125,0 11.19438,4.81062 11.19438,10.74687 v 14.04812 C 101.26375,164.9175 112,147.72812 112,128 Z"
   id="path905"
   inkscape:connector-curvature="0" />
<g
   id="g915"
   transform="scale(0.625)">
	<circle
   style="fill:#dd352e"
   cx="477.867"
   cy="136.533"
   r="25.6"
   id="circle907" />
	<circle
   style="fill:#dd352e"
   cx="34.132999"
   cy="418.133"
   r="25.6"
   id="circle909" />
	<circle
   style="fill:#dd352e"
   cx="384"
   cy="477.867"
   r="25.6"
   id="circle911" />
	<circle
   style="fill:#dd352e"
   cx="256"
   cy="264.53299"
   r="25.6"
   id="circle913" />
</g>
<g
   id="g921"
   transform="scale(0.625)">
	<circle
   style="fill:#ffffff"
   cx="93.866997"
   cy="179.2"
   r="25.6"
   id="circle917" />
	<path
   style="fill:#ffffff"
   d="m 118.622,238.933 h -49.51 c -9.89,0 -17.911,7.697 -17.911,17.195 v 22.494 c 12.561,7.279 27.102,11.511 42.667,11.511 15.565,0 30.106,-4.233 42.667,-11.511 v -22.494 c -0.002,-9.498 -8.023,-17.195 -17.913,-17.195 z"
   id="path919"
   inkscape:connector-curvature="0" />
</g>
<path
   style="fill:#366db6;stroke-width:0.625"
   d="M 240,58.66687 C 240,29.21062 216.1225,5.33375 186.66687,5.33375 c -29.45562,0 -53.33312,23.8775 -53.33312,53.33312 0,19.72813 10.74125,36.91188 26.66688,46.13876 V 90.74688 C 160.00063,84.81063 165.01375,80 171.195,80 h 30.94375 c 6.18125,0 11.19437,4.81063 11.19437,10.74688 V 104.795 C 229.26375,95.58375 240,78.39437 240,58.66687 Z"
   id="path923"
   inkscape:connector-curvature="0" />
<g
   id="g929"
   transform="scale(0.625)">
	<circle
   style="fill:#ffffff"
   cx="298.66699"
   cy="68.266998"
   r="25.6"
   id="circle925" />
	<path
   style="fill:#ffffff"
   d="m 323.422,128 h -49.51 c -9.89,0 -17.911,7.697 -17.911,17.195 v 22.494 c 12.561,7.279 27.102,11.511 42.667,11.511 15.565,0 30.106,-4.233 42.667,-11.511 V 145.195 C 341.333,135.697 333.312,128 323.422,128 Z"
   id="path927"
   inkscape:connector-curvature="0" />
</g>
<path
   style="fill:#366db6;stroke-width:0.625"
   d="M 309.33312,197.33312 C 309.33312,167.87688 285.45562,144 256,144 c -29.45562,0 -53.33313,23.8775 -53.33313,53.33312 0,19.72813 10.74126,36.91188 26.66688,46.13875 v -14.05874 c 0,-5.93625 5.01313,-10.74688 11.19438,-10.74688 h 30.94375 c 6.18125,0 11.19437,4.81063 11.19437,10.74688 v 14.04812 c 15.93125,-9.21062 26.66687,-26.4 26.66687,-46.12813 z"
   id="path931"
   inkscape:connector-curvature="0" />
<g
   id="g937"
   transform="scale(0.625)">
	<circle
   style="fill:#ffffff"
   cx="409.60001"
   cy="290.133"
   r="25.6"
   id="circle933" />
	<path
   style="fill:#ffffff"
   d="m 434.355,349.867 h -49.51 c -9.89,0 -17.911,7.697 -17.911,17.195 v 22.494 c 12.561,7.279 27.102,11.511 42.667,11.511 15.565,0 30.106,-4.233 42.667,-11.511 v -22.494 c -10e-4,-9.498 -8.023,-17.195 -17.913,-17.195 z"
   id="path935"
   inkscape:connector-curvature="0" />
</g>
<path
   style="fill:#366db6;stroke-width:0.625"
   d="M 181.33312,261.33312 C 181.33312,231.87687 157.45562,208 128,208 c -29.45563,0 -53.33313,23.8775 -53.33313,53.33312 0,19.72813 10.74125,36.91188 26.66688,46.13875 v -14.05875 c 0,-5.93625 5.01312,-10.74687 11.19437,-10.74687 h 30.94375 c 6.18125,0 11.19438,4.81062 11.19438,10.74687 v 14.04813 c 15.93125,-9.21062 26.66687,-26.4 26.66687,-46.12813 z"
   id="path939"
   inkscape:connector-curvature="0" />
<g
   id="g945"
   transform="scale(0.625)">
	<circle
   style="fill:#ffffff"
   cx="204.8"
   cy="392.53299"
   r="25.6"
   id="circle941" />
	<path
   style="fill:#ffffff"
   d="m 229.555,452.267 h -49.51 c -9.89,0 -17.911,7.697 -17.911,17.195 v 22.494 c 12.561,7.279 27.102,11.511 42.667,11.511 15.565,0 30.106,-4.233 42.667,-11.511 v -22.494 c -10e-4,-9.498 -8.023,-17.195 -17.913,-17.195 z"
   id="path943"
   inkscape:connector-curvature="0" />
</g>
<circle
   style="fill:#dd352e;stroke-width:0.625"
   cx="58.66687"
   cy="21.333122"
   r="16"
   id="circle947" />
<g
   id="g999"
   transform="scale(0.625)">
	<path
   style="fill:#4d007e"
   d="m 477.867,170.667 c -18.825,0 -34.133,-15.309 -34.133,-34.133 0,-18.824 15.309,-34.133 34.133,-34.133 18.825,0 34.133,15.309 34.133,34.133 0,18.824 -15.309,34.133 -34.133,34.133 z m 0,-51.2 c -9.412,0 -17.067,7.654 -17.067,17.067 0,9.412 7.654,17.067 17.067,17.067 9.412,0 17.067,-7.654 17.067,-17.067 0,-9.413 -7.655,-17.067 -17.067,-17.067 z"
   id="path949"
   inkscape:connector-curvature="0" />
	<path
   style="fill:#4d007e"
   d="M 34.133,452.267 C 15.309,452.267 0,436.958 0,418.133 0,399.309 15.309,384 34.133,384 c 18.824,0 34.133,15.309 34.133,34.133 10e-4,18.825 -15.308,34.134 -34.133,34.134 z m 0,-51.2 c -9.412,0 -17.067,7.654 -17.067,17.067 0,9.412 7.654,17.067 17.067,17.067 9.413,0 17.067,-7.655 17.067,-17.068 0,-9.412 -7.654,-17.066 -17.067,-17.066 z"
   id="path951"
   inkscape:connector-curvature="0" />
	<path
   style="fill:#4d007e"
   d="m 457.609,129.408 c -1.246,0 -2.509,-0.273 -3.703,-0.853 L 380.289,93.014 c -4.241,-2.048 -6.025,-7.151 -3.977,-11.392 2.048,-4.241 7.142,-6.033 11.392,-3.977 l 73.617,35.541 c 4.241,2.048 6.025,7.151 3.977,11.392 -1.469,3.055 -4.515,4.83 -7.689,4.83 z"
   id="path953"
   inkscape:connector-curvature="0" />
	<path
   style="fill:#4d007e"
   d="m 384,512 c -18.825,0 -34.133,-15.309 -34.133,-34.133 0,-18.825 15.309,-34.133 34.133,-34.133 18.825,0 34.133,15.309 34.133,34.133 C 418.133,496.691 402.825,512 384,512 Z m 0,-51.2 c -9.412,0 -17.067,7.654 -17.067,17.067 0,9.412 7.654,17.067 17.067,17.067 9.412,0 17.067,-7.654 17.067,-17.067 0,-9.413 -7.655,-17.067 -17.067,-17.067 z"
   id="path955"
   inkscape:connector-curvature="0" />
	<path
   style="fill:#4d007e"
   d="m 363.742,470.741 c -1.246,0 -2.509,-0.273 -3.703,-0.853 l -73.617,-35.541 c -4.241,-2.048 -6.025,-7.151 -3.977,-11.392 2.048,-4.25 7.142,-6.033 11.392,-3.977 l 73.617,35.541 c 4.241,2.048 6.025,7.151 3.977,11.392 -1.468,3.055 -4.515,4.83 -7.689,4.83 z"
   id="path957"
   inkscape:connector-curvature="0" />
	<path
   style="fill:#4d007e"
   d="m 256,298.667 c -18.825,0 -34.133,-15.309 -34.133,-34.133 0,-18.825 15.309,-34.133 34.133,-34.133 18.825,0 34.133,15.309 34.133,34.133 0,18.824 -15.308,34.133 -34.133,34.133 z m 0,-51.2 c -9.412,0 -17.067,7.654 -17.067,17.067 0,9.412 7.654,17.067 17.067,17.067 9.412,0 17.067,-7.654 17.067,-17.067 0,-9.413 -7.655,-17.067 -17.067,-17.067 z"
   id="path959"
   inkscape:connector-curvature="0" />
	<path
   style="fill:#4d007e"
   d="m 235.742,257.408 c -1.835,0 -3.678,-0.589 -5.239,-1.801 l -56.55,-44.075 c -3.721,-2.901 -4.378,-8.26 -1.485,-11.981 2.901,-3.721 8.26,-4.361 11.981,-1.485 l 56.55,44.075 c 3.721,2.901 4.378,8.26 1.485,11.981 -1.69,2.16 -4.199,3.286 -6.742,3.286 z"
   id="path961"
   inkscape:connector-curvature="0" />
	<path
   style="fill:#4d007e"
   d="m 409.6,409.6 c -51.755,0 -93.867,-42.112 -93.867,-93.867 0,-51.755 42.112,-93.867 93.867,-93.867 51.755,0 93.867,42.112 93.867,93.867 0,51.755 -42.112,93.867 -93.867,93.867 z m 0,-170.667 c -42.351,0 -76.8,34.449 -76.8,76.8 0,42.351 34.449,76.8 76.8,76.8 42.351,0 76.8,-34.449 76.8,-76.8 0,-42.351 -34.449,-76.8 -76.8,-76.8 z"
   id="path963"
   inkscape:connector-curvature="0" />
	<path
   style="fill:#4d007e"
   d="m 409.6,324.267 c -18.825,0 -34.133,-15.309 -34.133,-34.133 0,-18.825 15.309,-34.133 34.133,-34.133 18.825,0 34.133,15.309 34.133,34.133 0,18.824 -15.308,34.133 -34.133,34.133 z m 0,-51.2 c -9.412,0 -17.067,7.654 -17.067,17.067 0,9.412 7.654,17.067 17.067,17.067 9.412,0 17.067,-7.654 17.067,-17.067 0,-9.413 -7.655,-17.067 -17.067,-17.067 z"
   id="path965"
   inkscape:connector-curvature="0" />
	<path
   style="fill:#4d007e"
   d="m 409.6,409.6 c -16.41,0 -32.64,-4.378 -46.942,-12.655 -2.637,-1.527 -4.258,-4.343 -4.258,-7.39 v -22.494 c 0,-14.182 11.861,-25.728 26.445,-25.728 h 49.51 c 14.583,0 26.445,11.546 26.445,25.737 v 22.494 c 0,3.038 -1.621,5.862 -4.258,7.381 C 442.24,405.222 426.01,409.6 409.6,409.6 Z m -34.133,-25.131 c 21.239,10.581 47.027,10.581 68.267,0 V 367.07 c 0,-4.779 -4.207,-8.67 -9.378,-8.67 h -49.51 c -5.171,0 -9.378,3.891 -9.378,8.67 v 17.399 z m 76.8,5.086 h 0.085 z"
   id="path967"
   inkscape:connector-curvature="0" />
	<path
   style="fill:#4d007e"
   d="m 204.8,512 c -51.755,0 -93.867,-42.112 -93.867,-93.867 0,-51.755 42.112,-93.867 93.867,-93.867 51.755,0 93.867,42.112 93.867,93.867 0,51.755 -42.112,93.867 -93.867,93.867 z m 0,-170.667 c -42.351,0 -76.8,34.449 -76.8,76.8 0,42.351 34.449,76.8 76.8,76.8 42.351,0 76.8,-34.449 76.8,-76.8 0,-42.351 -34.449,-76.8 -76.8,-76.8 z"
   id="path969"
   inkscape:connector-curvature="0" />
	<path
   style="fill:#4d007e"
   d="m 204.8,426.667 c -18.825,0 -34.133,-15.309 -34.133,-34.133 0,-18.824 15.308,-34.134 34.133,-34.134 18.825,0 34.133,15.309 34.133,34.133 0,18.824 -15.308,34.134 -34.133,34.134 z m 0,-51.2 c -9.412,0 -17.067,7.654 -17.067,17.067 0,9.413 7.655,17.066 17.067,17.066 9.412,0 17.067,-7.654 17.067,-17.067 0,-9.413 -7.655,-17.066 -17.067,-17.066 z"
   id="path971"
   inkscape:connector-curvature="0" />
	<path
   style="fill:#4d007e"
   d="m 204.8,512 c -16.41,0 -32.64,-4.378 -46.942,-12.655 -2.637,-1.527 -4.258,-4.343 -4.258,-7.39 v -22.494 c 0,-14.182 11.861,-25.728 26.445,-25.728 h 49.51 c 14.583,0 26.445,11.546 26.445,25.737 v 22.494 c 0,3.038 -1.621,5.862 -4.258,7.381 C 237.44,507.622 221.21,512 204.8,512 Z m -34.133,-25.131 c 21.239,10.581 47.027,10.581 68.267,0 V 469.47 c 0,-4.779 -4.207,-8.67 -9.378,-8.67 h -49.51 c -5.171,0 -9.378,3.891 -9.378,8.67 v 17.399 z m 76.8,5.086 h 0.085 z"
   id="path973"
   inkscape:connector-curvature="0" />
	<path
   style="fill:#4d007e"
   d="M 93.867,298.667 C 42.112,298.667 0,256.555 0,204.8 c 0,-51.755 42.112,-93.867 93.867,-93.867 51.755,0 93.867,42.112 93.867,93.867 0,51.755 -42.113,93.867 -93.867,93.867 z m 0,-170.667 c -42.351,0 -76.8,34.449 -76.8,76.8 0,42.351 34.449,76.8 76.8,76.8 42.351,0 76.8,-34.449 76.8,-76.8 0,-42.351 -34.449,-76.8 -76.8,-76.8 z"
   id="path975"
   inkscape:connector-curvature="0" />
	<path
   style="fill:#4d007e"
   d="m 93.867,213.333 c -18.825,0 -34.133,-15.309 -34.133,-34.133 0,-18.824 15.309,-34.133 34.133,-34.133 18.824,0 34.133,15.308 34.133,34.133 0,18.825 -15.309,34.133 -34.133,34.133 z m 0,-51.2 c -9.412,0 -17.067,7.654 -17.067,17.067 0,9.413 7.654,17.067 17.067,17.067 9.413,0 17.067,-7.654 17.067,-17.067 0,-9.413 -7.655,-17.067 -17.067,-17.067 z"
   id="path977"
   inkscape:connector-curvature="0" />
	<path
   style="fill:#4d007e"
   d="m 93.867,298.667 c -16.41,0 -32.64,-4.378 -46.942,-12.655 -2.637,-1.527 -4.258,-4.343 -4.258,-7.39 v -22.494 c 0,-14.182 11.861,-25.728 26.445,-25.728 h 49.51 c 14.583,0 26.445,11.546 26.445,25.737 v 22.494 c 0,3.038 -1.621,5.862 -4.258,7.381 -14.302,8.277 -30.533,12.655 -46.942,12.655 z M 59.733,273.536 c 21.239,10.581 47.027,10.581 68.267,0 v -17.399 c 0,-4.779 -4.207,-8.67 -9.378,-8.67 h -49.51 c -5.171,0 -9.378,3.891 -9.378,8.67 v 17.399 z m 76.8,5.086 h 0.085 z"
   id="path979"
   inkscape:connector-curvature="0" />
	<path
   style="fill:#4d007e"
   d="M 298.667,187.733 C 246.912,187.733 204.8,145.621 204.8,93.866 204.8,42.111 246.912,0 298.667,0 c 51.755,0 93.867,42.112 93.867,93.867 0,51.755 -42.113,93.866 -93.867,93.866 z m 0,-170.666 c -42.351,0 -76.8,34.449 -76.8,76.8 0,42.351 34.449,76.8 76.8,76.8 42.351,0 76.8,-34.449 76.8,-76.8 0,-42.351 -34.449,-76.8 -76.8,-76.8 z"
   id="path981"
   inkscape:connector-curvature="0" />
	<path
   style="fill:#4d007e"
   d="m 298.667,102.4 c -18.825,0 -34.133,-15.309 -34.133,-34.133 0,-18.824 15.309,-34.133 34.133,-34.133 18.824,0 34.133,15.308 34.133,34.133 0,18.825 -15.309,34.133 -34.133,34.133 z m 0,-51.2 c -9.412,0 -17.067,7.654 -17.067,17.067 0,9.413 7.654,17.067 17.067,17.067 9.412,0 17.067,-7.654 17.067,-17.067 0,-9.413 -7.655,-17.067 -17.067,-17.067 z"
   id="path983"
   inkscape:connector-curvature="0" />
	<path
   style="fill:#4d007e"
   d="m 298.667,187.733 c -16.41,0 -32.64,-4.378 -46.942,-12.655 -2.637,-1.527 -4.258,-4.343 -4.258,-7.39 v -22.494 c 0,-14.182 11.861,-25.728 26.445,-25.728 h 49.51 c 14.583,0 26.445,11.546 26.445,25.737 v 22.494 c 0,3.038 -1.621,5.862 -4.258,7.381 -14.302,8.278 -30.533,12.655 -46.942,12.655 z m -34.134,-25.13 c 21.239,10.581 47.027,10.581 68.267,0 v -17.399 c 0,-4.779 -4.207,-8.67 -9.378,-8.67 h -49.51 c -5.171,0 -9.378,3.891 -9.378,8.67 v 17.399 z m 76.8,5.086 h 0.085 z"
   id="path985"
   inkscape:connector-curvature="0" />
	<path
   style="fill:#4d007e"
   d="m 154.206,153.003 c -2.406,0 -4.796,-1.015 -6.485,-2.987 -3.063,-3.584 -2.645,-8.969 0.939,-12.032 l 59.136,-50.603 c 3.584,-3.063 8.969,-2.637 12.032,0.93 3.063,3.584 2.645,8.969 -0.939,12.032 l -59.136,50.603 c -1.613,1.383 -3.584,2.057 -5.547,2.057 z"
   id="path987"
   inkscape:connector-curvature="0" />
	<path
   style="fill:#4d007e"
   d="m 401.075,238.933 c -2.594,0 -5.154,-1.178 -6.835,-3.413 l -51.2,-68.267 c -2.825,-3.763 -2.065,-9.114 1.707,-11.938 3.772,-2.816 9.122,-2.074 11.947,1.707 l 51.2,68.267 c 2.825,3.763 2.065,9.114 -1.707,11.938 -1.536,1.152 -3.337,1.706 -5.112,1.706 z"
   id="path989"
   inkscape:connector-curvature="0" />
	<path
   style="fill:#4d007e"
   d="m 283.375,393.344 c -2.594,0 -5.154,-1.178 -6.835,-3.413 -2.825,-3.763 -2.065,-9.114 1.707,-11.938 l 47.667,-35.746 c 3.772,-2.825 9.122,-2.065 11.947,1.707 2.825,3.763 2.065,9.114 -1.707,11.938 l -47.667,35.746 c -1.537,1.143 -3.329,1.706 -5.112,1.706 z"
   id="path991"
   inkscape:connector-curvature="0" />
	<path
   style="fill:#4d007e"
   d="M 119.467,426.667 H 59.733 c -4.71,0 -8.533,-3.814 -8.533,-8.533 0,-4.719 3.823,-8.533 8.533,-8.533 h 59.733 c 4.71,0 8.533,3.814 8.533,8.533 0.001,4.718 -3.822,8.533 -8.532,8.533 z"
   id="path993"
   inkscape:connector-curvature="0" />
	<path
   style="fill:#4d007e"
   d="M 93.867,68.267 C 75.042,68.267 59.734,52.958 59.734,34.134 59.734,15.31 75.042,0 93.867,0 112.692,0 128,15.309 128,34.133 128,52.957 112.691,68.267 93.867,68.267 Z m 0,-51.2 c -9.412,0 -17.067,7.654 -17.067,17.067 0,9.413 7.654,17.066 17.067,17.066 9.413,0 17.067,-7.654 17.067,-17.067 0,-9.413 -7.655,-17.066 -17.067,-17.066 z"
   id="path995"
   inkscape:connector-curvature="0" />
	<path
   style="fill:#4d007e"
   d="m 93.867,128 c -4.71,0 -8.533,-3.814 -8.533,-8.533 V 59.733 c 0,-4.719 3.823,-8.533 8.533,-8.533 4.71,0 8.533,3.814 8.533,8.533 v 59.733 c 0,4.72 -3.823,8.534 -8.533,8.534 z"
   id="path997"
   inkscape:connector-curvature="0" />
</g>
<g
   id="g1001"
   transform="scale(0.625)">
</g>
<g
   id="g1003"
   transform="scale(0.625)">
</g>
<g
   id="g1005"
   transform="scale(0.625)">
</g>
<g
   id="g1007"
   transform="scale(0.625)">
</g>
<g
   id="g1009"
   transform="scale(0.625)">
</g>
<g
   id="g1011"
   transform="scale(0.625)">
</g>
<g
   id="g1013"
   transform="scale(0.625)">
</g>
<g
   id="g1015"
   transform="scale(0.625)">
</g>
<g
   id="g1017"
   transform="scale(0.625)">
</g>
<g
   id="g1019"
   transform="scale(0.625)">
</g>
<g
   id="g1021"
   transform="scale(0.625)">
</g>
<g
   id="g1023"
   transform="scale(0.625)">
</g>
<g
   id="g1025"
   transform="scale(0.625)">
</g>
<g
   id="g1027"
   transform="scale(0.625)">
</g>
<g
   id="g1029"
   transform="scale(0.625)">
</g>
</svg>