<svg id="Layer" enable-background="new 0 0 64 64" height="512" viewBox="0 0 64 64" width="512" xmlns="http://www.w3.org/2000/svg"><path d="m14 10h36c2.209 0 4 1.791 4 4v36c0 2.209-1.791 4-4 4h-36c-2.209 0-4-1.791-4-4v-36c0-2.209 1.791-4 4-4z" fill="#4dd0e1"/><path d="m46 39v6c0 .55-.45 1-1 1h-26c-.55 0-1-.45-1-1v-6c0-.55.45-1 1-1h26c.55 0 1 .45 1 1z" fill="#ff7043"/><g fill="#012e52"><path d="m48 45v-6c0-1.654-1.346-3-3-3h-26c-1.654 0-3 1.346-3 3v6c0 1.654 1.346 3 3 3h26c1.654 0 3-1.346 3-3zm-4-1h-24v-4h24z"/><path d="m50 8h-36c-3.309 0-6 2.691-6 6v36c0 3.309 2.691 6 6 6 1.104 0 2-.896 2-2s-.896-2-2-2c-1.103 0-2-.897-2-2v-36c0-1.103.897-2 2-2h36c1.103 0 2 .897 2 2v36c0 1.103-.897 2-2 2-1.104 0-2 .896-2 2s.896 2 2 2c3.309 0 6-2.691 6-6v-36c0-3.309-2.691-6-6-6z"/><path d="m21 52c-1.104 0-2 .896-2 2s.896 2 2 2h22c1.104 0 2-.896 2-2s-.896-2-2-2z"/></g></svg>