<?xml version="1.0" encoding="UTF-8" standalone="no"?>
<!-- Generator: Adobe Illustrator 19.0.0, SVG Export Plug-In . SVG Version: 6.00 Build 0)  -->

<svg
   xmlns:dc="http://purl.org/dc/elements/1.1/"
   xmlns:cc="http://creativecommons.org/ns#"
   xmlns:rdf="http://www.w3.org/1999/02/22-rdf-syntax-ns#"
   xmlns:svg="http://www.w3.org/2000/svg"
   xmlns="http://www.w3.org/2000/svg"
   xmlns:sodipodi="http://sodipodi.sourceforge.net/DTD/sodipodi-0.dtd"
   xmlns:inkscape="http://www.inkscape.org/namespaces/inkscape"
   version="1.1"
   id="Capa_1"
   x="0px"
   y="0px"
   viewBox="0 0 256 255.7"
   xml:space="preserve"
   sodipodi:docname="setup_styles.svg"
   inkscape:version="0.92.4 5da689c313, 2019-01-14"
   width="256"
   height="255.7"><metadata
   id="metadata164"><rdf:RDF><cc:Work
       rdf:about=""><dc:format>image/svg+xml</dc:format><dc:type
         rdf:resource="http://purl.org/dc/dcmitype/StillImage" /><dc:title></dc:title></cc:Work></rdf:RDF></metadata><defs
   id="defs162" /><sodipodi:namedview
   pagecolor="#ffffff"
   bordercolor="#666666"
   borderopacity="1"
   objecttolerance="10"
   gridtolerance="10"
   guidetolerance="10"
   inkscape:pageopacity="0"
   inkscape:pageshadow="2"
   inkscape:window-width="1264"
   inkscape:window-height="736"
   id="namedview160"
   showgrid="false"
   inkscape:zoom="0.99414062"
   inkscape:cx="-179.30059"
   inkscape:cy="128"
   inkscape:window-x="7"
   inkscape:window-y="31"
   inkscape:window-maximized="0"
   inkscape:current-layer="Capa_1"
   fit-margin-top="-0.3"
   fit-margin-left="0"
   fit-margin-right="0"
   fit-margin-bottom="0" />
<path
   style="fill:#ffe67d;stroke-width:0.5"
   d="m 256,127.7 c 0,70.6925 -57.3075,128 -128,128 -70.6925,0 -128,-57.3075 -128,-128 0,-70.6925 57.3075,-128 128,-128 70.6925,0 128,57.3075 128,128 z"
   id="path107"
   inkscape:connector-curvature="0" />
<path
   style="fill:#b9783d;stroke-width:0.5"
   d="m 194.8595,102.49 -18.19,49.9765 -13.4855,37.0515 -15.0545,41.3615 c -2.745,7.5425 -11.085,11.4315 -18.6275,8.686 -0.705,-0.2565 -1.378,-0.5625 -2.017,-0.9115 -0.614,0.3305 -1.258,0.6225 -1.933,0.868 v 0 c -7.5425,2.745 -15.882,-1.1435 -18.627,-8.686 L 60.195,102.4465 C 57.624,95.3825 61.266,87.572 68.33,85.001 l 1.7325,-0.6305 c 7.064,-2.571 14.8745,1.071 17.4455,8.135 l 18.19,49.9765 7.768,21.343 V 86.126 c 0,-7.5175 6.094,-13.6115 13.611,-13.6115 h 1.8435 c 7.5175,0 13.6115,6.094 13.6115,13.6115 v 53.1835 21.9625 l 25.013,-68.723 c 2.571,-7.064 10.3815,-10.706 17.4455,-8.135 l 1.7325,0.6305 c 7.0655,2.571 10.7075,10.3815 8.1365,17.4455 z"
   id="path109"
   inkscape:connector-curvature="0" />
<path
   style="fill:#965028;stroke-width:0.5"
   d="M 191.1915,88.1355 C 185.758,88.629 180.829,92.1735 178.839,97.64 l -46.4145,127.523 c -1.189,3.2665 -1.1245,6.679 -0.0665,9.7245 0.579,0.382 1.186,0.7255 1.8185,1.023 -0.3895,0.183 -0.7905,0.3455 -1.198,0.4945 0.701,1.4635 1.641,2.8135 2.7985,3.979 -2.0635,0.1875 -4.199,-0.063 -6.275,-0.8185 v 0 c -0.7065,-0.257 -1.381,-0.5635 -2.021,-0.9135 -0.6135,0.3305 -1.2545,0.625 -1.9285,0.87 v 0 c -7.5425,2.745 -15.882,-1.1435 -18.627,-8.686 L 60.511,103.313 c -2.745,-7.542 1.1435,-15.882 8.686,-18.627 v 0 c 2.076,-0.7555 4.2115,-1.006 6.275,-0.8185 -3.845,3.8705 -5.3425,9.7545 -3.353,15.221 L 113.467,212.691 V 87.0475 c 0,-8.0265 6.5065,-14.533 14.533,-14.533 v 0 c 2.209,0 4.3015,0.495 6.1765,1.377 -4.9375,2.322 -8.3565,7.339 -8.3565,13.156 v 120.143 L 167.231,93.415 c 2.745,-7.5425 11.085,-11.431 18.627,-8.686 v 0 c 2.076,0.7555 3.873,1.9365 5.3335,3.4065 z"
   id="path111"
   inkscape:connector-curvature="0" />
<path
   style="fill:#80391b;stroke-width:0.5"
   d="m 156.125,16.8585 -5.017,17.7945 -7.503,22.608 c -4.006,-0.9935 -9.517,-1.6075 -15.605,-1.6075 -6.088,0 -11.599,0.6145 -15.605,1.6075 L 104.98,34.918 100.684,16.8585 c -1.131,-3.408 0.0945,-7.186 3.066,-9.202 C 111.15,2.635 118.383,0.95 128,0.95 c 9.617,0 17.6585,1.685 25.059,6.7065 2.9715,2.0165 4.197,5.7945 3.066,9.202 z m 53.5,6.7165 c 0.0975,-0.2765 0.049,-0.585 -0.025,-0.8685 -0.347,-1.336 0.5245,-2.4315 -0.6,-1.6315 L 179.625,43.2 c -3.134,2.23 -6.7535,3.666 -8.5955,6.8195 -4.263,7.299 -4.898,16.441 -1.135,24.5105 v 0 c 3.2995,7.076 9.333,12.0045 16.256,14.1145 6.0205,1.8345 12.713,1.538 18.866,-1.331 v 0 c 4.368,-2.037 8.1895,-4.9885 10.544,-8.8855 2.8695,-4.7495 3.974,-9.4165 4.023,-13.976 C 219.752,48.6545 205.331,35.734 209.625,23.575 Z M 45.5,19.7 c -3.25,11.875 -5.131,28.621 -1.557,43.4105 0.694,2.8715 1.4935,5.5665 2.3755,7.9895 5.4235,14.901 12.928,16.6815 26.258,22.87 6.2335,-13.309 10.838,-19.4965 5.414,-34.3975 -0.8985,-2.4685 -1.946,-5.149 -3.39,-7.796 C 67.125,38.075 56.875,27.95 45.5,19.7 Z"
   id="path113"
   inkscape:connector-curvature="0" />
<path
   style="fill:#ff5a5f;stroke-width:0.5"
   d="m 157.0135,16.8585 -6.346,19.122 c -2.384,-0.347 -4.2905,-2.148 -4.8015,-4.4765 V 19.4155 c 0,-3.195 -2.59,-5.7845 -5.7845,-5.7845 h -0.439 c -3.195,0 -5.7845,2.59 -5.7845,5.7845 v 1.037 c -0.5825,2.579 -2.8835,4.507 -5.6385,4.507 h -0.439 c -2.755,0 -5.056,-1.9275 -5.6385,-4.507 v -1.037 c 0,-3.195 -2.59,-5.7845 -5.7845,-5.7845 h -0.439 c -3.1945,0 -5.7845,2.59 -5.7845,5.7845 v 12.09 c -0.511,2.328 -2.4175,4.1285 -4.8015,4.4755 l -6.346,-19.122 c -1.131,-3.408 0.0945,-7.186 3.066,-9.202 7.4,-5.022 16.3305,-7.957 25.9475,-7.957 9.617,0 18.5475,2.935 25.9475,7.9565 2.9715,2.0165 4.197,5.7945 3.066,9.202 z"
   id="path115"
   inkscape:connector-curvature="0" />
<path
   style="fill:#6e96dc;stroke-width:0.5"
   d="m 219.5245,65.9665 c -1.361,0.9195 -3.125,1.2015 -4.7865,0.5965 v 0 c -2.381,-0.8665 -3.7615,-3.2605 -3.444,-5.673 l 0.3945,-1.0835 c 1.002,-2.7535 -0.4175,-5.7985 -3.171,-6.8005 v 0 c -2.7535,-1.002 -5.7985,0.4175 -6.8005,3.171 l -5.2335,14.3795 c -1.3075,2.052 -3.9035,2.9985 -6.285,2.132 -2.381,-0.8665 -3.761,-3.2605 -3.444,-5.673 L 191.988,52.636 c 1.002,-2.7535 -0.4175,-5.7985 -3.171,-6.8005 -2.7535,-1.0025 -5.7985,0.4175 -6.8005,3.171 l -1.604,4.4075 c -1.3075,2.052 -3.9035,2.9985 -6.285,2.132 -2.101,-0.7645 -3.4215,-2.719 -3.486,-4.8255 1.87,-3.437 4.52,-6.5005 7.884,-8.894 l 29.9385,-21.812 c 1.1245,-0.8 2.702,-0.226 3.0495,1.11 0.074,0.284 0.1225,0.592 0.0245,0.8685 -4.4315,12.5465 9.0255,27.5885 7.9865,43.9735 z"
   id="path117"
   inkscape:connector-curvature="0" />
<path
   style="fill:#3caf96;stroke-width:0.5"
   d="M 64.8885,56.698 61.216,46.608 c -1.0435,-2.8665 -4.213,-4.345 -7.08,-3.3015 -2.867,1.0435 -4.345,4.213 -3.3015,7.08 l 3.6725,10.09 C 54.856,63 53.425,65.511 50.9345,66.4175 48.2445,67.3965 45.288,66.155 44.0715,63.63 40.389,48.78 39.5345,28.976 44.8155,17.6995 v 0 c 11.294,5.2435 23.3695,20.9635 30.094,34.7065 0.6915,2.7165 -0.7755,5.5675 -3.4655,6.5465 -2.4905,0.9065 -5.201,-0.097 -6.5555,-2.2545 z"
   id="path119"
   inkscape:connector-curvature="0" />
<path
   style="fill:#9bb9c3;stroke-width:0.5"
   d="M 188.093,151.0645 179.5645,244.88 C 163.788,251.832 146.347,255.7 128,255.7 c -18.347,0 -35.788,-3.868 -51.564,-10.8205 L 67.9075,151.064 c -0.248,-2.728 1.9,-5.0795 4.639,-5.0795 H 183.454 c 2.739,0 4.8865,2.352 4.639,5.08 z"
   id="path121"
   inkscape:connector-curvature="0" />
<path
   style="fill:#87a0af;stroke-width:0.5"
   d="m 180.187,238.028 -0.623,6.8515 C 163.788,251.832 146.347,255.7 128,255.7 c -18.347,0 -35.788,-3.868 -51.564,-10.8205 L 67.9075,151.064 c -0.248,-2.728 1.9,-5.0795 4.639,-5.0795 h 12.467 C 85.0085,146.3895 85,146.7935 85,147.2 c 0,51.0865 35.8175,92.5 80,92.5 5.1935,0 10.2695,-0.579 15.187,-1.672 z"
   id="path123"
   inkscape:connector-curvature="0" />
<path
   style="fill:#fff5af;stroke-width:0.5"
   d="m 200.012,88.334 v 0 c -0.1245,0.342 -0.257,0.6805 -0.393,1.017 l 0.02,0.007 -9.941,27.313 v -5e-4 l -0.1405,0.3865 -27.313,-9.941 3.3745,-9.271 6.7075,-18.428 0.02,0.007 c 0.112,-0.3455 0.228,-0.6895 0.3525,-1.0315 v 0 c 0.6865,-1.8855 7.357,-1.1885 14.8995,1.5565 7.542,2.7445 13.0995,6.4985 12.4135,8.384 z M 91.883,104.523 81.942,77.21 81.922,77.218 C 81.81,76.8725 81.6935,76.5285 81.5695,76.1865 v 0 C 80.883,74.301 74.2125,74.9975 66.67,77.743 59.1275,80.4885 53.5695,84.2425 54.256,86.128 v 0 c 0.1245,0.342 0.257,0.68 0.393,1.017 l -0.0205,0.007 6.7075,18.428 3.3745,9.271 27.313,-9.941 z m 52.418,-51.256 c -4.051,-1.0985 -9.853,-1.787 -16.3005,-1.787 -6.4475,0 -12.2495,0.6885 -16.301,1.787 -0.921,0.25 -1.4875,1.176 -1.3105,2.114 l 2.881,15.2695 0.197,18.809 v 9.866 h 29.066 V 98.915 l 0.197,-28.2645 2.881,-15.2695 c 0.177,-0.938 -0.389,-1.8645 -1.31,-2.114 z"
   id="path125"
   inkscape:connector-curvature="0" />
<path
   style="fill:#e6b464;stroke-width:0.5"
   d="m 191.46,94.834 -0.029,0.0795 c -0.6495,1.785 -2.5735,2.7385 -4.398,2.21 -0.3125,-0.0905 -0.6245,-0.1925 -0.935,-0.3055 l -6.027,-2.1935 -1.422,3.9075 6.027,2.1935 c 0.1785,0.065 0.3575,0.126 0.5365,0.1835 1.963,0.63 3.045,2.7235 2.34,4.6605 l -0.029,0.079 c -0.6495,1.785 -2.5735,2.7385 -4.398,2.21 -0.3125,-0.0905 -0.6245,-0.192 -0.935,-0.305 l -6.027,-2.1935 -2.1925,6.0245 -11.7265,-4.268 3.3745,-9.271 0.2405,-0.6605 2.4855,-6.8285 3.9815,-10.939 0.02,0.007 c 0.112,-0.3455 0.228,-0.6895 0.3525,-1.0315 v 0 c 0.6865,-1.8855 7.357,-1.1885 14.8995,1.5565 2.099,0.764 4.0435,1.606 5.743,2.464 -4.8075,-1.1285 -8.4205,-1.1135 -8.916,0.2475 v 0 c -0.1245,0.342 -0.2405,0.6865 -0.3525,1.0315 l -0.0205,-0.007 -1.496,4.111 6.027,2.1935 c 0.1785,0.065 0.3575,0.126 0.5365,0.1835 1.963,0.6295 3.045,2.723 2.34,4.6605 z M 83.1035,97.398 c -0.705,-1.9375 -2.8795,-2.8455 -4.7885,-2.066 -0.174,0.071 -0.3505,0.1395 -0.529,0.2045 l -6.0275,2.1935 -1.422,-3.9075 6.027,-2.1935 c 0.3105,-0.113 0.6145,-0.2355 0.9125,-0.367 1.737,-0.768 2.598,-2.7355 1.9485,-4.52 l -0.029,-0.079 c -0.705,-1.9375 -2.8795,-2.8455 -4.788,-2.066 -0.174,0.0715 -0.3505,0.1395 -0.529,0.204 l -6.027,2.1935 -1.496,-4.111 0.0205,-0.008 c -0.136,-0.3365 -0.2685,-0.675 -0.393,-1.017 v 0 c -0.495,-1.361 2.263,-3.695 6.671,-5.9205 -1.854,0.435 -3.8845,1.04 -5.9835,1.804 -7.5425,2.745 -13.1005,6.4995 -12.414,8.385 0.1245,0.342 0.257,0.68 0.393,1.017 l -0.0205,0.007 3.9815,10.939 1.2715,3.4935 1.454,3.995 3.3745,9.271 11.7265,-4.268 -2.1925,-6.0245 6.027,-2.1935 c 0.3105,-0.113 0.6145,-0.2355 0.9125,-0.367 1.737,-0.768 2.598,-2.7355 1.9485,-4.52 z M 132.927,74.212 c -0.188,0.007 -0.377,0.011 -0.567,0.011 h -6.414 v -9.061 c -0.052,0.002 -2.66,-13.556 -2.66,-13.556 -4.535,0.2455 -8.552,0.8385 -11.5865,1.661 -0.921,0.25 -1.4875,1.176 -1.3105,2.114 l 2.881,15.2695 0.197,10.8395 v 7.2665 0.703 9.866 h 12.479 v -3.309 -3.102 h 6.414 c 0.3305,0 0.658,-0.011 0.983,-0.033 1.895,-0.1275 3.377,-1.682 3.377,-3.581 v -0.084 c 0,-2.0615 -1.7325,-3.659 -3.793,-3.579 -0.188,0.007 -0.377,0.011 -0.567,0.011 h -6.414 v -4.158 h 6.414 c 0.3305,0 0.658,-0.011 0.983,-0.033 1.895,-0.1275 3.377,-1.682 3.377,-3.581 v -0.084 c 0,-2.063 -1.7325,-3.66 -3.793,-3.5805 z"
   id="path127"
   inkscape:connector-curvature="0" />
<g
   id="g129"
   transform="matrix(0.5,0,0,0.5,0,-0.3)">
</g>
<g
   id="g131"
   transform="matrix(0.5,0,0,0.5,0,-0.3)">
</g>
<g
   id="g133"
   transform="matrix(0.5,0,0,0.5,0,-0.3)">
</g>
<g
   id="g135"
   transform="matrix(0.5,0,0,0.5,0,-0.3)">
</g>
<g
   id="g137"
   transform="matrix(0.5,0,0,0.5,0,-0.3)">
</g>
<g
   id="g139"
   transform="matrix(0.5,0,0,0.5,0,-0.3)">
</g>
<g
   id="g141"
   transform="matrix(0.5,0,0,0.5,0,-0.3)">
</g>
<g
   id="g143"
   transform="matrix(0.5,0,0,0.5,0,-0.3)">
</g>
<g
   id="g145"
   transform="matrix(0.5,0,0,0.5,0,-0.3)">
</g>
<g
   id="g147"
   transform="matrix(0.5,0,0,0.5,0,-0.3)">
</g>
<g
   id="g149"
   transform="matrix(0.5,0,0,0.5,0,-0.3)">
</g>
<g
   id="g151"
   transform="matrix(0.5,0,0,0.5,0,-0.3)">
</g>
<g
   id="g153"
   transform="matrix(0.5,0,0,0.5,0,-0.3)">
</g>
<g
   id="g155"
   transform="matrix(0.5,0,0,0.5,0,-0.3)">
</g>
<g
   id="g157"
   transform="matrix(0.5,0,0,0.5,0,-0.3)">
</g>
</svg>