<?xml version="1.0" encoding="UTF-8" standalone="no"?>
<svg
   xmlns:dc="http://purl.org/dc/elements/1.1/"
   xmlns:cc="http://creativecommons.org/ns#"
   xmlns:rdf="http://www.w3.org/1999/02/22-rdf-syntax-ns#"
   xmlns:svg="http://www.w3.org/2000/svg"
   xmlns="http://www.w3.org/2000/svg"
   xmlns:sodipodi="http://sodipodi.sourceforge.net/DTD/sodipodi-0.dtd"
   xmlns:inkscape="http://www.inkscape.org/namespaces/inkscape"
   height="240pt"
   viewBox="0 0 240 240"
   width="240pt"
   version="1.1"
   id="svg92"
   sodipodi:docname="setup_avatar.svg"
   inkscape:version="0.92.4 5da689c313, 2019-01-14">
  <metadata
     id="metadata98">
    <rdf:RDF>
      <cc:Work
         rdf:about="">
        <dc:format>image/svg+xml</dc:format>
        <dc:type
           rdf:resource="http://purl.org/dc/dcmitype/StillImage" />
        <dc:title></dc:title>
      </cc:Work>
    </rdf:RDF>
  </metadata>
  <defs
     id="defs96" />
  <sodipodi:namedview
     pagecolor="#ffffff"
     bordercolor="#666666"
     borderopacity="1"
     objecttolerance="10"
     gridtolerance="10"
     guidetolerance="10"
     inkscape:pageopacity="0"
     inkscape:pageshadow="2"
     inkscape:window-width="1264"
     inkscape:window-height="736"
     id="namedview94"
     showgrid="false"
     inkscape:zoom="1.0544454"
     inkscape:cx="83.675131"
     inkscape:cy="157.95878"
     inkscape:window-x="7"
     inkscape:window-y="31"
     inkscape:window-maximized="0"
     inkscape:current-layer="svg92"
     fit-margin-top="0"
     fit-margin-left="0"
     fit-margin-right="0"
     fit-margin-bottom="0" />
  <path
     d="M 0,0 H 240 V 240 H 0 Z"
     id="path74"
     inkscape:connector-curvature="0"
     style="fill:#f8d539;stroke-width:0.46875" />
  <path
     d="M 195,191.87256 H 45 v -20.82093 c 0.002,-5.05737 3.05054,-9.61669 7.72522,-11.54846 L 95.31006,141.90674 95.04822,131.33972 82.5,112.5 V 86.93298 c -0.27649,-19.16198 13.62305,-35.5902 32.56531,-38.4906 10.70984,-1.40625 21.5094,1.86768 29.63379,8.98865 8.12439,7.11914 12.78991,17.39319 12.8009,28.19641 V 112.5 l -12.54822,18.82507 -0.26184,10.56702 42.58484,17.5946 c 4.68017,1.93543 7.72888,6.50208 7.72522,11.56494 z m 0,0"
     id="path76"
     inkscape:connector-curvature="0"
     style="fill:#ffffff;stroke-width:0.46875" />
  <g
     id="g86"
     transform="scale(0.46874999)"
     style="fill:#708299">
    <path
       d="M 32,160 H 0 V 0 H 160 V 32 H 32 Z m 0,0"
       id="path78"
       inkscape:connector-curvature="0" />
    <path
       d="M 144,512 H 0 V 368 h 32 v 112 h 112 z m 0,0"
       id="path80"
       inkscape:connector-curvature="0" />
    <path
       d="M 512,160 H 480 V 32 H 352 V 0 h 160 z m 0,0"
       id="path82"
       inkscape:connector-curvature="0" />
    <path
       d="M 512,512 H 352 V 480 H 480 V 352 h 32 z m 0,0"
       id="path84"
       inkscape:connector-curvature="0" />
  </g>
  <path
     d="m 195,30 h 15 v 15 h -15 z m 0,0"
     id="path88"
     inkscape:connector-curvature="0"
     style="fill:#ffffff;stroke-width:0.46875" />
  <path
     d="m 195,60 h 15 v 15 h -15 z m 0,0"
     id="path90"
     inkscape:connector-curvature="0"
     style="fill:#ffffff;stroke-width:0.46875" />
</svg>
