<?xml version="1.0" encoding="UTF-8" standalone="no"?>
<!-- Created with Inkscape (http://www.inkscape.org/) -->

<svg
   xmlns:dc="http://purl.org/dc/elements/1.1/"
   xmlns:cc="http://creativecommons.org/ns#"
   xmlns:rdf="http://www.w3.org/1999/02/22-rdf-syntax-ns#"
   xmlns:svg="http://www.w3.org/2000/svg"
   xmlns="http://www.w3.org/2000/svg"
   xmlns:sodipodi="http://sodipodi.sourceforge.net/DTD/sodipodi-0.dtd"
   xmlns:inkscape="http://www.inkscape.org/namespaces/inkscape"
   width="1300.0854"
   height="272.12598"
   viewBox="0 0 343.98087 72"
   version="1.1"
   id="svg8"
   sodipodi:docname="template_header.svg"
   inkscape:version="0.92.4 5da689c313, 2019-01-14"
   inkscape:export-filename="/home/brbl/public_html/BlogZone/assets/header_logo.png"
   inkscape:export-xdpi="25.400002"
   inkscape:export-ydpi="25.400002">
  <defs
     id="defs2" />
  <sodipodi:namedview
     id="base"
     pagecolor="#ffffff"
     bordercolor="#666666"
     borderopacity="1.0"
     inkscape:pageopacity="0"
     inkscape:pageshadow="2"
     inkscape:zoom="0.49497475"
     inkscape:cx="706.87591"
     inkscape:cy="99.038914"
     inkscape:document-units="mm"
     inkscape:current-layer="layer1"
     showgrid="false"
     inkscape:snap-object-midpoints="true"
     inkscape:snap-center="true"
     inkscape:snap-bbox="true"
     inkscape:snap-bbox-midpoints="true"
     inkscape:snap-bbox-edge-midpoints="true"
     inkscape:bbox-nodes="true"
     inkscape:bbox-paths="true"
     inkscape:snap-text-baseline="true"
     inkscape:object-paths="true"
     inkscape:snap-intersection-paths="true"
     inkscape:snap-midpoints="true"
     inkscape:snap-global="false"
     inkscape:window-width="1264"
     inkscape:window-height="736"
     inkscape:window-x="7"
     inkscape:window-y="31"
     inkscape:window-maximized="0"
     inkscape:pagecheckerboard="true"
     showguides="false"
     fit-margin-top="0"
     fit-margin-left="0"
     fit-margin-right="0"
     fit-margin-bottom="0"
     units="px"
     inkscape:snap-page="true" />
  <metadata
     id="metadata5">
    <rdf:RDF>
      <cc:Work
         rdf:about="">
        <dc:format>image/svg+xml</dc:format>
        <dc:type
           rdf:resource="http://purl.org/dc/dcmitype/StillImage" />
        <dc:title />
      </cc:Work>
    </rdf:RDF>
  </metadata>
  <g
     inkscape:label="Layer 1"
     inkscape:groupmode="layer"
     id="layer1"
     transform="translate(9.6791544,-150.7469)">
    <g
       id="g1209"
       transform="translate(-0.53453906,0.80180858)"
       style="fill:#0044aa" />
    <flowRoot
       xml:space="preserve"
       id="flowRoot266"
       style="font-style:normal;font-weight:normal;font-size:40px;line-height:1.25;font-family:sans-serif;letter-spacing:0px;word-spacing:0px;fill:#000000;fill-opacity:1;stroke:none"><flowRegion
         id="flowRegion268"><rect
           id="rect270"
           width="914.28571"
           height="394.28571"
           x="877.14282"
           y="136.55794" /></flowRegion><flowPara
         id="flowPara272" /></flowRoot>    <rect
       style="opacity:1;fill:none;fill-opacity:1;stroke:#4d4d4d;stroke-width:3.175;stroke-miterlimit:4;stroke-dasharray:12.7,6.35;stroke-opacity:0.99145298;stroke-dashoffset:0"
       id="rect80"
       width="343.98093"
       height="72"
       x="-9.6791544"
       y="150.7469" />
    <flowRoot
       xml:space="preserve"
       id="flowRoot887"
       style="fill:black;fill-opacity:1;stroke:none;font-family:sans-serif;font-style:normal;font-weight:normal;font-size:40px;line-height:1.25;letter-spacing:0px;word-spacing:0px"><flowRegion
         id="flowRegion889"><rect
           id="rect891"
           width="884.89362"
           height="272.12598"
           x="64.649765"
           y="9.3196359e-06" /></flowRegion><flowPara
         id="flowPara893"></flowPara></flowRoot>    <g
       aria-label="HEADER LOGO
"
       transform="matrix(1.1315061,0,0,1.8017368,-107.3996,37.034088)"
       style="font-style:normal;font-weight:normal;font-size:40px;line-height:1.25;font-family:sans-serif;letter-spacing:0px;word-spacing:0px;fill:#4d4d4d;fill-opacity:1;stroke:none"
       id="flowRoot895">
      <path
         d="m 94.839844,68.244141 h 3.945312 V 80.197266 H 113.12109 V 68.244141 h 3.94532 v 29.160156 h -3.94532 V 83.517578 H 98.785156 v 13.886719 h -3.945312 z"
         style="fill:#4d4d4d"
         id="path950" />
      <path
         d="m 124.91797,68.244141 h 18.4375 v 3.320312 h -14.49219 v 8.632813 H 142.75 v 3.320312 h -13.88672 v 10.566406 h 14.84375 v 3.320313 h -18.78906 z"
         style="fill:#4d4d4d"
         id="path952" />
      <path
         d="m 159.9375,72.130859 -5.35156,14.511719 h 10.72265 z m -2.22656,-3.886718 h 4.47265 l 11.11328,29.160156 h -4.10156 l -2.65625,-7.480469 h -13.14453 l -2.65625,7.480469 h -4.16016 z"
         style="fill:#4d4d4d"
         id="path954" />
      <path
         d="m 181.5,71.486328 v 22.675781 h 4.76562 q 6.03516,0 8.82813,-2.734375 2.8125,-2.734375 2.8125,-8.632812 0,-5.859375 -2.8125,-8.574219 -2.79297,-2.734375 -8.82813,-2.734375 z m -3.94531,-3.242187 h 8.10547 q 8.47656,0 12.4414,3.535156 3.96485,3.515625 3.96485,11.015625 0,7.539062 -3.98438,11.074219 -3.98437,3.535156 -12.42187,3.535156 h -8.10547 z"
         style="fill:#4d4d4d"
         id="path956" />
      <path
         d="m 208.35547,68.244141 h 18.4375 v 3.320312 h -14.49219 v 8.632813 h 13.88672 v 3.320312 h -13.88672 v 10.566406 h 14.84375 v 3.320313 h -18.78906 z"
         style="fill:#4d4d4d"
         id="path958" />
      <path
         d="m 247.45703,83.732422 q 1.26953,0.429687 2.46094,1.835937 1.21094,1.40625 2.42187,3.867188 l 4.00391,7.96875 h -4.23828 L 248.375,89.923828 q -1.44531,-2.929687 -2.8125,-3.886719 -1.34766,-0.957031 -3.69141,-0.957031 h -4.29687 v 12.324219 h -3.94531 V 68.244141 h 8.90625 q 5,0 7.46093,2.089843 2.46094,2.089844 2.46094,6.308594 0,2.753906 -1.28906,4.570313 -1.26953,1.816406 -3.71094,2.519531 z m -9.88281,-12.246094 v 10.351563 h 4.96094 q 2.85156,0 4.29687,-1.308594 1.46484,-1.328125 1.46484,-3.886719 0,-2.558594 -1.46484,-3.847656 -1.44531,-1.308594 -4.29687,-1.308594 z"
         style="fill:#4d4d4d"
         id="path960" />
      <path
         d="m 274.13672,68.244141 h 3.94531 v 25.839843 h 14.19922 v 3.320313 h -18.14453 z"
         style="fill:#4d4d4d"
         id="path962" />
      <path
         d="m 306.83203,70.919922 q -4.29687,0 -6.83594,3.203125 -2.51953,3.203125 -2.51953,8.730469 0,5.507812 2.51953,8.710937 2.53907,3.203125 6.83594,3.203125 4.29688,0 6.79688,-3.203125 2.51953,-3.203125 2.51953,-8.710937 0,-5.527344 -2.51953,-8.730469 -2.5,-3.203125 -6.79688,-3.203125 z m 0,-3.203125 q 6.13281,0 9.80469,4.121094 3.67187,4.101562 3.67187,11.015625 0,6.894531 -3.67187,11.015625 -3.67188,4.101562 -9.80469,4.101562 -6.15234,0 -9.84375,-4.101562 -3.67187,-4.101563 -3.67187,-11.015625 0,-6.914063 3.67187,-11.015625 3.69141,-4.121094 9.84375,-4.121094 z"
         style="fill:#4d4d4d"
         id="path964" />
      <path
         d="m 346.36328,93.244141 v -7.832032 h -6.44531 v -3.242187 h 10.35156 v 12.519531 q -2.28516,1.621094 -5.03906,2.460938 -2.75391,0.820312 -5.87891,0.820312 -6.83594,0 -10.70312,-3.984375 -3.84766,-4.003906 -3.84766,-11.132812 0,-7.148438 3.84766,-11.132813 3.86718,-4.003906 10.70312,-4.003906 2.85156,0 5.41016,0.703125 2.57812,0.703125 4.74609,2.070312 v 4.199219 q -2.1875,-1.855469 -4.64844,-2.792969 -2.46093,-0.9375 -5.17578,-0.9375 -5.35156,0 -8.04687,2.988282 -2.67578,2.988281 -2.67578,8.90625 0,5.898437 2.67578,8.886718 2.69531,2.988282 8.04687,2.988282 2.08985,0 3.73047,-0.351563 1.64063,-0.371094 2.94922,-1.132812 z"
         style="fill:#4d4d4d"
         id="path966" />
      <path
         d="m 369.3125,70.919922 q -4.29688,0 -6.83594,3.203125 -2.51953,3.203125 -2.51953,8.730469 0,5.507812 2.51953,8.710937 2.53906,3.203125 6.83594,3.203125 4.29687,0 6.79687,-3.203125 2.51954,-3.203125 2.51954,-8.710937 0,-5.527344 -2.51954,-8.730469 -2.5,-3.203125 -6.79687,-3.203125 z m 0,-3.203125 q 6.13281,0 9.80469,4.121094 3.67187,4.101562 3.67187,11.015625 0,6.894531 -3.67187,11.015625 -3.67188,4.101562 -9.80469,4.101562 -6.15234,0 -9.84375,-4.101562 -3.67188,-4.101563 -3.67188,-11.015625 0,-6.914063 3.67188,-11.015625 3.69141,-4.121094 9.84375,-4.121094 z"
         style="fill:#4d4d4d"
         id="path968" />
    </g>
  </g>
</svg>
